<?xml version="1.0" standalone="no"?>
<!DOCTYPE svg PUBLIC "-//W3C//DTD SVG 20010904//EN"
 "http://www.w3.org/TR/2001/REC-SVG-20010904/DTD/svg10.dtd">
<svg version="1.0" xmlns="http://www.w3.org/2000/svg"
 width="500.000000pt" height="500.000000pt" viewBox="0 0 500.000000 500.000000"
 preserveAspectRatio="xMidYMid meet">
<metadata>
Created by potrace 1.16, written by Peter Selinger 2001-2019
</metadata>
<g transform="translate(0.000000,500.000000) scale(0.100000,-0.100000)"
fill="#000000" stroke="none">
<path d="M2315 4105 c-49 -7 -121 -20 -160 -29 -94 -22 -300 -93 -350 -121
-22 -12 -67 -37 -100 -55 -58 -32 -129 -80 -230 -159 -61 -47 -204 -196 -266
-276 -123 -161 -225 -377 -278 -593 -46 -184 -54 -268 -48 -468 8 -252 43
-401 146 -619 41 -86 69 -133 178 -295 28 -42 205 -219 263 -263 46 -36 123
-87 215 -144 54 -33 182 -88 285 -123 386 -128 833 -100 1211 78 75 35 135 71
280 166 24 16 105 90 180 165 98 98 154 165 204 240 70 107 157 281 193 386
115 335 119 695 10 1020 -47 141 -143 331 -220 435 -138 186 -212 258 -388
385 -77 55 -82 58 -190 113 -142 72 -240 106 -435 148 -92 21 -381 26 -500 9z
m417 -305 c140 -27 235 -74 324 -164 41 -41 81 -91 93 -119 25 -55 31 -150 12
-185 -14 -27 -37 -23 -86 13 -47 35 -350 180 -455 218 -53 19 -150 47 -215 62
-103 24 -142 28 -280 29 -153 0 -209 -7 -300 -40 -16 -5 -18 -4 -8 6 6 7 20
17 31 24 11 6 52 30 92 53 201 120 498 158 792 103z m796 -403 c243 -333 90
-740 -342 -908 -174 -67 -178 -68 -866 -58 -274 3 -276 3 -374 -24 -203 -55
-333 -140 -423 -277 -67 -103 -93 -184 -101 -325 l-7 -110 -29 48 c-15 26 -42
80 -60 120 -30 69 -31 77 -30 202 1 107 4 140 22 189 35 96 88 180 154 248
137 140 300 213 535 239 87 10 158 9 409 -6 250 -14 321 -15 405 -5 172 20
270 51 418 135 48 27 169 158 195 210 38 79 52 174 39 281 -14 125 -9 128 55
41z m-1253 -95 c50 -12 133 -35 185 -52 99 -32 340 -146 340 -160 0 -4 -10
-10 -22 -14 -35 -9 -311 -6 -423 4 -199 19 -378 23 -470 11 -244 -32 -416
-120 -603 -309 -57 -57 -106 -101 -109 -98 -9 8 43 164 74 224 102 193 300
346 522 402 103 27 371 22 506 -8z m1565 -824 c0 -76 -35 -210 -76 -292 -65
-133 -194 -260 -329 -325 -112 -54 -203 -74 -345 -73 -163 0 -316 31 -578 117
-257 84 -338 105 -444 112 -49 3 -88 10 -88 14 0 5 5 10 10 10 6 1 13 2 18 3
96 24 210 28 477 20 403 -12 588 -11 670 5 139 27 281 90 410 181 47 33 163
154 220 228 22 29 43 52 47 52 5 0 8 -24 8 -52z m-1750 -812 c41 -8 134 -33
205 -54 254 -78 361 -106 485 -128 14 -3 91 -7 171 -11 143 -5 304 11 376 38
34 13 29 -7 -13 -43 -46 -41 -166 -118 -224 -145 -74 -34 -200 -70 -289 -83
-128 -19 -370 -8 -503 24 -111 26 -317 106 -339 132 -6 8 -17 14 -23 14 -6 0
-35 24 -65 54 -42 42 -54 62 -58 95 -5 37 -2 46 23 73 16 16 38 34 49 38 31
13 123 11 205 -4z"/>
</g>
</svg>
